<svg width="184" height="79" viewBox="0 0 184 79" fill="none" xmlns="http://www.w3.org/2000/svg">
<rect x="73" width="37.3783" height="42.2538" rx="5" fill="#1B5696"/>
<path d="M82.5915 33.5716V8.45081H100.773V18.7275C97.541 15.9871 95.7228 14.731 95.2178 14.4455C92.9956 13.3037 91.4299 13.5892 90.9249 13.8746C89.1067 15.7016 90.1673 16.9196 90.9249 17.3002C92.541 17.3002 93.6185 18.2517 93.9552 18.7275C95.1673 20.0977 94.9653 22.9143 94.7127 24.1513C92.6925 23.6946 91.3457 23.961 90.9249 24.1513C89.9147 24.1513 89.4939 25.8641 89.4097 26.7205C89.2077 30.3744 89.9989 34.5232 90.4198 36.1408H84.6117C82.7935 36.1408 82.5073 34.428 82.5915 33.5716Z" fill="white" stroke="white"/>
<rect width="1.61699" height="9.62224" transform="matrix(0.662574 -0.748997 0.662574 0.748997 81.2008 30.9417)" fill="#1B5696"/>
<rect width="1.61699" height="14.6405" transform="matrix(0.662574 -0.748997 0.662574 0.748997 81.0508 25.8845)" fill="#1B5696"/>
<path d="M7.55859 52.4062V78H2.28516V52.4062H7.55859ZM17.7539 63.3398V67.4531H6.11719V63.3398H17.7539ZM18.9844 52.4062V56.5371H6.11719V52.4062H18.9844ZM28.5103 51V78H23.4302V51H28.5103ZM42.8878 78.3516C41.4113 78.3516 40.087 78.1172 38.9152 77.6484C37.7433 77.168 36.7472 76.5059 35.9269 75.6621C35.1183 74.8184 34.4972 73.8398 34.0636 72.7266C33.63 71.6016 33.4132 70.4062 33.4132 69.1406V68.4375C33.4132 66.9961 33.6183 65.6777 34.0284 64.4824C34.4386 63.2871 35.0245 62.25 35.7863 61.3711C36.5597 60.4922 37.4972 59.8184 38.5988 59.3496C39.7003 58.8691 40.9425 58.6289 42.3253 58.6289C43.673 58.6289 44.8683 58.8516 45.9113 59.2969C46.9542 59.7422 47.8273 60.375 48.5304 61.1953C49.2452 62.0156 49.7843 63 50.1476 64.1484C50.5109 65.2852 50.6925 66.5508 50.6925 67.9453V70.0547H35.5753V66.6797H45.7179V66.293C45.7179 65.5898 45.589 64.9629 45.3312 64.4121C45.0851 63.8496 44.7101 63.4043 44.2062 63.0762C43.7023 62.748 43.0577 62.584 42.2726 62.584C41.6046 62.584 41.0304 62.7305 40.5499 63.0234C40.0695 63.3164 39.6769 63.7266 39.3722 64.2539C39.0792 64.7812 38.8566 65.4023 38.7042 66.1172C38.5636 66.8203 38.4933 67.5938 38.4933 68.4375V69.1406C38.4933 69.9023 38.5988 70.6055 38.8097 71.25C39.0323 71.8945 39.3429 72.4512 39.7413 72.9199C40.1515 73.3887 40.6437 73.752 41.2179 74.0098C41.8038 74.2676 42.4659 74.3965 43.2042 74.3965C44.1183 74.3965 44.9679 74.2207 45.753 73.8691C46.5499 73.5059 47.2355 72.9609 47.8097 72.2344L50.2706 74.9062C49.8722 75.4805 49.3273 76.0312 48.6359 76.5586C47.9562 77.0859 47.1359 77.5195 46.1749 77.8594C45.214 78.1875 44.1183 78.3516 42.8878 78.3516ZM59.0934 58.9805L62.2399 64.7637L65.4743 58.9805H70.8708L65.4919 68.2793L71.1169 78H65.7028L62.2751 71.8828L58.8473 78H53.4333L59.0583 68.2793L53.6794 58.9805H59.0934ZM80.1155 58.9805V78H75.0354V58.9805H80.1155ZM74.719 54.0234C74.719 53.2852 74.9768 52.6758 75.4924 52.1953C76.008 51.7148 76.6995 51.4746 77.5666 51.4746C78.4221 51.4746 79.1077 51.7148 79.6233 52.1953C80.1506 52.6758 80.4143 53.2852 80.4143 54.0234C80.4143 54.7617 80.1506 55.3711 79.6233 55.8516C79.1077 56.332 78.4221 56.5723 77.5666 56.5723C76.6995 56.5723 76.008 56.332 75.4924 55.8516C74.9768 55.3711 74.719 54.7617 74.719 54.0234ZM96.0223 72.7441C96.0223 72.3809 95.9168 72.0527 95.7059 71.7598C95.4949 71.4668 95.1023 71.1973 94.5281 70.9512C93.9656 70.6934 93.1512 70.459 92.0848 70.248C91.1238 70.0371 90.2273 69.7734 89.3953 69.457C88.575 69.1289 87.8602 68.7363 87.2508 68.2793C86.6531 67.8223 86.1844 67.2832 85.8445 66.6621C85.5047 66.0293 85.3348 65.3086 85.3348 64.5C85.3348 63.7031 85.5047 62.9531 85.8445 62.25C86.1961 61.5469 86.6941 60.9258 87.3387 60.3867C87.9949 59.8359 88.7918 59.4082 89.7293 59.1035C90.6785 58.7871 91.7449 58.6289 92.9285 58.6289C94.5809 58.6289 95.9988 58.8926 97.1824 59.4199C98.3777 59.9473 99.2918 60.6738 99.9246 61.5996C100.569 62.5137 100.891 63.5566 100.891 64.7285H95.8289C95.8289 64.2363 95.7234 63.7969 95.5125 63.4102C95.3133 63.0117 94.9969 62.7012 94.5633 62.4785C94.1414 62.2441 93.5906 62.127 92.9109 62.127C92.3484 62.127 91.8621 62.2266 91.452 62.4258C91.0418 62.6133 90.7254 62.8711 90.5027 63.1992C90.2918 63.5156 90.1863 63.8672 90.1863 64.2539C90.1863 64.5469 90.2449 64.8105 90.3621 65.0449C90.491 65.2676 90.6961 65.4727 90.9773 65.6602C91.2586 65.8477 91.6219 66.0234 92.0672 66.1875C92.5242 66.3398 93.0867 66.4805 93.7547 66.6094C95.1258 66.8906 96.3504 67.2598 97.4285 67.7168C98.5066 68.1621 99.3621 68.7715 99.9949 69.5449C100.628 70.3066 100.944 71.3086 100.944 72.5508C100.944 73.3945 100.757 74.168 100.382 74.8711C100.007 75.5742 99.4676 76.1895 98.7645 76.7168C98.0613 77.2324 97.2176 77.6367 96.2332 77.9297C95.2605 78.2109 94.1648 78.3516 92.9461 78.3516C91.1766 78.3516 89.6766 78.0352 88.4461 77.4023C87.2273 76.7695 86.3016 75.9668 85.6687 74.9941C85.0477 74.0098 84.7371 73.002 84.7371 71.9707H89.5359C89.5594 72.6621 89.7352 73.2188 90.0633 73.6406C90.4031 74.0625 90.8309 74.3672 91.3465 74.5547C91.8738 74.7422 92.4422 74.8359 93.0516 74.8359C93.7078 74.8359 94.2527 74.748 94.6863 74.5723C95.1199 74.3848 95.448 74.1387 95.6707 73.834C95.9051 73.5176 96.0223 73.1543 96.0223 72.7441ZM115.937 73.7109V65.2383C115.937 64.6289 115.837 64.1074 115.638 63.6738C115.439 63.2285 115.128 62.8828 114.706 62.6367C114.296 62.3906 113.763 62.2676 113.107 62.2676C112.544 62.2676 112.058 62.3672 111.648 62.5664C111.238 62.7539 110.921 63.0293 110.699 63.3926C110.476 63.7441 110.365 64.1602 110.365 64.6406H105.302C105.302 63.832 105.49 63.0645 105.865 62.3379C106.24 61.6113 106.785 60.9727 107.499 60.4219C108.214 59.8594 109.064 59.4199 110.048 59.1035C111.044 58.7871 112.158 58.6289 113.388 58.6289C114.865 58.6289 116.177 58.875 117.326 59.3672C118.474 59.8594 119.376 60.5977 120.033 61.582C120.701 62.5664 121.035 63.7969 121.035 65.2734V73.4121C121.035 74.4551 121.099 75.3105 121.228 75.9785C121.357 76.6348 121.544 77.209 121.79 77.7012V78H116.675C116.429 77.4844 116.242 76.8398 116.113 76.0664C115.995 75.2812 115.937 74.4961 115.937 73.7109ZM116.605 66.416L116.64 69.2812H113.81C113.142 69.2812 112.562 69.3574 112.07 69.5098C111.577 69.6621 111.173 69.8789 110.857 70.1602C110.54 70.4297 110.306 70.7461 110.154 71.1094C110.013 71.4727 109.943 71.8711 109.943 72.3047C109.943 72.7383 110.042 73.1309 110.242 73.4824C110.441 73.8223 110.728 74.0918 111.103 74.291C111.478 74.4785 111.917 74.5723 112.421 74.5723C113.183 74.5723 113.845 74.4199 114.408 74.1152C114.97 73.8105 115.404 73.4355 115.708 72.9902C116.025 72.5449 116.189 72.123 116.201 71.7246L117.536 73.8691C117.349 74.3496 117.091 74.8477 116.763 75.3633C116.447 75.8789 116.042 76.3652 115.55 76.8223C115.058 77.2676 114.466 77.6367 113.775 77.9297C113.083 78.2109 112.263 78.3516 111.314 78.3516C110.107 78.3516 109.011 78.1113 108.027 77.6309C107.054 77.1387 106.281 76.4648 105.706 75.6094C105.144 74.7422 104.863 73.7578 104.863 72.6562C104.863 71.6602 105.05 70.7754 105.425 70.002C105.8 69.2285 106.351 68.5781 107.077 68.0508C107.816 67.5117 108.736 67.1074 109.837 66.8379C110.939 66.5566 112.216 66.416 113.669 66.416H116.605ZM132.564 74.3086L136.783 58.9805H142.074L135.658 78H132.459L132.564 74.3086ZM129.664 58.9805L133.9 74.3262L133.988 78H130.771L124.355 58.9805H129.664ZM154.29 78.3516C152.813 78.3516 151.489 78.1172 150.317 77.6484C149.145 77.168 148.149 76.5059 147.329 75.6621C146.52 74.8184 145.899 73.8398 145.465 72.7266C145.032 71.6016 144.815 70.4062 144.815 69.1406V68.4375C144.815 66.9961 145.02 65.6777 145.43 64.4824C145.84 63.2871 146.426 62.25 147.188 61.3711C147.961 60.4922 148.899 59.8184 150 59.3496C151.102 58.8691 152.344 58.6289 153.727 58.6289C155.075 58.6289 156.27 58.8516 157.313 59.2969C158.356 59.7422 159.229 60.375 159.932 61.1953C160.647 62.0156 161.186 63 161.549 64.1484C161.913 65.2852 162.094 66.5508 162.094 67.9453V70.0547H146.977V66.6797H157.12V66.293C157.12 65.5898 156.991 64.9629 156.733 64.4121C156.487 63.8496 156.112 63.4043 155.608 63.0762C155.104 62.748 154.459 62.584 153.674 62.584C153.006 62.584 152.432 62.7305 151.952 63.0234C151.471 63.3164 151.079 63.7266 150.774 64.2539C150.481 64.7812 150.258 65.4023 150.106 66.1172C149.965 66.8203 149.895 67.5938 149.895 68.4375V69.1406C149.895 69.9023 150 70.6055 150.211 71.25C150.434 71.8945 150.745 72.4512 151.143 72.9199C151.553 73.3887 152.045 73.752 152.62 74.0098C153.206 74.2676 153.868 74.3965 154.606 74.3965C155.52 74.3965 156.37 74.2207 157.155 73.8691C157.952 73.5059 158.637 72.9609 159.211 72.2344L161.672 74.9062C161.274 75.4805 160.729 76.0312 160.038 76.5586C159.358 77.0859 158.538 77.5195 157.577 77.8594C156.616 78.1875 155.52 78.3516 154.29 78.3516ZM176.7 72.7441C176.7 72.3809 176.595 72.0527 176.384 71.7598C176.173 71.4668 175.78 71.1973 175.206 70.9512C174.644 70.6934 173.829 70.459 172.763 70.248C171.802 70.0371 170.905 69.7734 170.073 69.457C169.253 69.1289 168.538 68.7363 167.929 68.2793C167.331 67.8223 166.862 67.2832 166.523 66.6621C166.183 66.0293 166.013 65.3086 166.013 64.5C166.013 63.7031 166.183 62.9531 166.523 62.25C166.874 61.5469 167.372 60.9258 168.017 60.3867C168.673 59.8359 169.47 59.4082 170.407 59.1035C171.356 58.7871 172.423 58.6289 173.606 58.6289C175.259 58.6289 176.677 58.8926 177.86 59.4199C179.056 59.9473 179.97 60.6738 180.603 61.5996C181.247 62.5137 181.569 63.5566 181.569 64.7285H176.507C176.507 64.2363 176.401 63.7969 176.19 63.4102C175.991 63.0117 175.675 62.7012 175.241 62.4785C174.819 62.2441 174.269 62.127 173.589 62.127C173.026 62.127 172.54 62.2266 172.13 62.4258C171.72 62.6133 171.403 62.8711 171.181 63.1992C170.97 63.5156 170.864 63.8672 170.864 64.2539C170.864 64.5469 170.923 64.8105 171.04 65.0449C171.169 65.2676 171.374 65.4727 171.655 65.6602C171.937 65.8477 172.3 66.0234 172.745 66.1875C173.202 66.3398 173.765 66.4805 174.433 66.6094C175.804 66.8906 177.028 67.2598 178.106 67.7168C179.185 68.1621 180.04 68.7715 180.673 69.5449C181.306 70.3066 181.622 71.3086 181.622 72.5508C181.622 73.3945 181.435 74.168 181.06 74.8711C180.685 75.5742 180.146 76.1895 179.442 76.7168C178.739 77.2324 177.896 77.6367 176.911 77.9297C175.939 78.2109 174.843 78.3516 173.624 78.3516C171.855 78.3516 170.355 78.0352 169.124 77.4023C167.905 76.7695 166.98 75.9668 166.347 74.9941C165.726 74.0098 165.415 73.002 165.415 71.9707H170.214C170.237 72.6621 170.413 73.2188 170.741 73.6406C171.081 74.0625 171.509 74.3672 172.024 74.5547C172.552 74.7422 173.12 74.8359 173.73 74.8359C174.386 74.8359 174.931 74.748 175.364 74.5723C175.798 74.3848 176.126 74.1387 176.349 73.834C176.583 73.5176 176.7 73.1543 176.7 72.7441Z" fill="#393E46"/>
</svg>
