<svg width="222" height="43" viewBox="0 0 222 43" fill="none" xmlns="http://www.w3.org/2000/svg">
<rect width="42.2538" height="42.2538" rx="5" fill="#1B5696"/>
<path d="M10.8424 33.5716V8.45081H31.3959V18.7275C27.7419 15.9871 25.6866 14.731 25.1157 14.4455C22.6036 13.3037 20.8337 13.5892 20.2628 13.8746C18.2074 15.7016 19.4064 16.9196 20.2628 17.3002C22.0897 17.3002 23.3077 18.2517 23.6883 18.7275C25.0586 20.0977 24.8302 22.9143 24.5447 24.1513C22.261 23.6946 20.7385 23.961 20.2628 24.1513C19.1209 24.1513 18.6451 25.8641 18.55 26.7205C18.3216 30.3744 19.2161 34.5232 19.6918 36.1408H13.1261C11.0708 36.1408 10.7473 34.428 10.8424 33.5716Z" fill="white" stroke="white"/>
<rect x="9.27039" y="30.9417" width="1.71278" height="10.1923" transform="rotate(-45 9.27039 30.9417)" fill="#1B5696"/>
<rect x="9.10083" y="25.8845" width="1.71278" height="15.5078" transform="rotate(-45 9.10083 25.8845)" fill="#1B5696"/>
<path d="M52.7173 9V36H47.6373V9H52.7173ZM67.0948 36.3516C65.6183 36.3516 64.2941 36.1172 63.1222 35.6484C61.9503 35.168 60.9542 34.5059 60.1339 33.6621C59.3253 32.8184 58.7042 31.8398 58.2706 30.7266C57.837 29.6016 57.6202 28.4062 57.6202 27.1406V26.4375C57.6202 24.9961 57.8253 23.6777 58.2355 22.4824C58.6456 21.2871 59.2316 20.25 59.9933 19.3711C60.7667 18.4922 61.7042 17.8184 62.8058 17.3496C63.9073 16.8691 65.1495 16.6289 66.5323 16.6289C67.88 16.6289 69.0753 16.8516 70.1183 17.2969C71.1613 17.7422 72.0343 18.375 72.7374 19.1953C73.4523 20.0156 73.9913 21 74.3546 22.1484C74.7179 23.2852 74.8995 24.5508 74.8995 25.9453V28.0547H59.7823V24.6797H69.9249V24.293C69.9249 23.5898 69.796 22.9629 69.5382 22.4121C69.2921 21.8496 68.9171 21.4043 68.4132 21.0762C67.9093 20.748 67.2648 20.584 66.4796 20.584C65.8116 20.584 65.2374 20.7305 64.757 21.0234C64.2765 21.3164 63.8839 21.7266 63.5792 22.2539C63.2863 22.7812 63.0636 23.4023 62.9113 24.1172C62.7706 24.8203 62.7003 25.5938 62.7003 26.4375V27.1406C62.7003 27.9023 62.8058 28.6055 63.0167 29.25C63.2394 29.8945 63.5499 30.4512 63.9484 30.9199C64.3585 31.3887 64.8507 31.752 65.4249 32.0098C66.0109 32.2676 66.673 32.3965 67.4113 32.3965C68.3253 32.3965 69.1749 32.2207 69.9601 31.8691C70.757 31.5059 71.4425 30.9609 72.0167 30.2344L74.4777 32.9062C74.0792 33.4805 73.5343 34.0312 72.8429 34.5586C72.1632 35.0859 71.3429 35.5195 70.382 35.8594C69.421 36.1875 68.3253 36.3516 67.0948 36.3516ZM83.3005 16.9805L86.447 22.7637L89.6813 16.9805H95.0778L89.6989 26.2793L95.3239 36H89.9098L86.4821 29.8828L83.0544 36H77.6403L83.2653 26.2793L77.8864 16.9805H83.3005ZM104.323 16.9805V36H99.2424V16.9805H104.323ZM98.926 12.0234C98.926 11.2852 99.1838 10.6758 99.6995 10.1953C100.215 9.71484 100.906 9.47461 101.774 9.47461C102.629 9.47461 103.315 9.71484 103.83 10.1953C104.358 10.6758 104.621 11.2852 104.621 12.0234C104.621 12.7617 104.358 13.3711 103.83 13.8516C103.315 14.332 102.629 14.5723 101.774 14.5723C100.906 14.5723 100.215 14.332 99.6995 13.8516C99.1838 13.3711 98.926 12.7617 98.926 12.0234ZM120.229 30.7441C120.229 30.3809 120.124 30.0527 119.913 29.7598C119.702 29.4668 119.309 29.1973 118.735 28.9512C118.173 28.6934 117.358 28.459 116.292 28.248C115.331 28.0371 114.434 27.7734 113.602 27.457C112.782 27.1289 112.067 26.7363 111.458 26.2793C110.86 25.8223 110.391 25.2832 110.052 24.6621C109.712 24.0293 109.542 23.3086 109.542 22.5C109.542 21.7031 109.712 20.9531 110.052 20.25C110.403 19.5469 110.901 18.9258 111.546 18.3867C112.202 17.8359 112.999 17.4082 113.936 17.1035C114.886 16.7871 115.952 16.6289 117.136 16.6289C118.788 16.6289 120.206 16.8926 121.389 17.4199C122.585 17.9473 123.499 18.6738 124.132 19.5996C124.776 20.5137 125.098 21.5566 125.098 22.7285H120.036C120.036 22.2363 119.93 21.7969 119.72 21.4102C119.52 21.0117 119.204 20.7012 118.77 20.4785C118.348 20.2441 117.798 20.127 117.118 20.127C116.555 20.127 116.069 20.2266 115.659 20.4258C115.249 20.6133 114.932 20.8711 114.71 21.1992C114.499 21.5156 114.393 21.8672 114.393 22.2539C114.393 22.5469 114.452 22.8105 114.569 23.0449C114.698 23.2676 114.903 23.4727 115.184 23.6602C115.466 23.8477 115.829 24.0234 116.274 24.1875C116.731 24.3398 117.294 24.4805 117.962 24.6094C119.333 24.8906 120.557 25.2598 121.636 25.7168C122.714 26.1621 123.569 26.7715 124.202 27.5449C124.835 28.3066 125.151 29.3086 125.151 30.5508C125.151 31.3945 124.964 32.168 124.589 32.8711C124.214 33.5742 123.675 34.1895 122.971 34.7168C122.268 35.2324 121.425 35.6367 120.44 35.9297C119.468 36.2109 118.372 36.3516 117.153 36.3516C115.384 36.3516 113.884 36.0352 112.653 35.4023C111.434 34.7695 110.509 33.9668 109.876 32.9941C109.255 32.0098 108.944 31.002 108.944 29.9707H113.743C113.766 30.6621 113.942 31.2188 114.27 31.6406C114.61 32.0625 115.038 32.3672 115.554 32.5547C116.081 32.7422 116.649 32.8359 117.259 32.8359C117.915 32.8359 118.46 32.748 118.893 32.5723C119.327 32.3848 119.655 32.1387 119.878 31.834C120.112 31.5176 120.229 31.1543 120.229 30.7441ZM140.144 31.7109V23.2383C140.144 22.6289 140.044 22.1074 139.845 21.6738C139.646 21.2285 139.335 20.8828 138.913 20.6367C138.503 20.3906 137.97 20.2676 137.314 20.2676C136.751 20.2676 136.265 20.3672 135.855 20.5664C135.445 20.7539 135.128 21.0293 134.906 21.3926C134.683 21.7441 134.572 22.1602 134.572 22.6406H129.509C129.509 21.832 129.697 21.0645 130.072 20.3379C130.447 19.6113 130.992 18.9727 131.706 18.4219C132.421 17.8594 133.271 17.4199 134.255 17.1035C135.251 16.7871 136.365 16.6289 137.595 16.6289C139.072 16.6289 140.384 16.875 141.533 17.3672C142.681 17.8594 143.583 18.5977 144.24 19.582C144.908 20.5664 145.242 21.7969 145.242 23.2734V31.4121C145.242 32.4551 145.306 33.3105 145.435 33.9785C145.564 34.6348 145.751 35.209 145.997 35.7012V36H140.882C140.636 35.4844 140.449 34.8398 140.32 34.0664C140.202 33.2812 140.144 32.4961 140.144 31.7109ZM140.812 24.416L140.847 27.2812H138.017C137.349 27.2812 136.769 27.3574 136.277 27.5098C135.785 27.6621 135.38 27.8789 135.064 28.1602C134.747 28.4297 134.513 28.7461 134.361 29.1094C134.22 29.4727 134.15 29.8711 134.15 30.3047C134.15 30.7383 134.249 31.1309 134.449 31.4824C134.648 31.8223 134.935 32.0918 135.31 32.291C135.685 32.4785 136.124 32.5723 136.628 32.5723C137.39 32.5723 138.052 32.4199 138.615 32.1152C139.177 31.8105 139.611 31.4355 139.915 30.9902C140.232 30.5449 140.396 30.123 140.408 29.7246L141.744 31.8691C141.556 32.3496 141.298 32.8477 140.97 33.3633C140.654 33.8789 140.249 34.3652 139.757 34.8223C139.265 35.2676 138.673 35.6367 137.982 35.9297C137.29 36.2109 136.47 36.3516 135.521 36.3516C134.314 36.3516 133.218 36.1113 132.234 35.6309C131.261 35.1387 130.488 34.4648 129.913 33.6094C129.351 32.7422 129.07 31.7578 129.07 30.6562C129.07 29.6602 129.257 28.7754 129.632 28.002C130.007 27.2285 130.558 26.5781 131.285 26.0508C132.023 25.5117 132.943 25.1074 134.044 24.8379C135.146 24.5566 136.423 24.416 137.876 24.416H140.812ZM156.771 32.3086L160.99 16.9805H166.281L159.865 36H156.666L156.771 32.3086ZM153.871 16.9805L158.107 32.3262L158.195 36H154.978L148.562 16.9805H153.871ZM178.497 36.3516C177.02 36.3516 175.696 36.1172 174.524 35.6484C173.352 35.168 172.356 34.5059 171.536 33.6621C170.727 32.8184 170.106 31.8398 169.672 30.7266C169.239 29.6016 169.022 28.4062 169.022 27.1406V26.4375C169.022 24.9961 169.227 23.6777 169.637 22.4824C170.047 21.2871 170.633 20.25 171.395 19.3711C172.168 18.4922 173.106 17.8184 174.208 17.3496C175.309 16.8691 176.551 16.6289 177.934 16.6289C179.282 16.6289 180.477 16.8516 181.52 17.2969C182.563 17.7422 183.436 18.375 184.139 19.1953C184.854 20.0156 185.393 21 185.756 22.1484C186.12 23.2852 186.301 24.5508 186.301 25.9453V28.0547H171.184V24.6797H181.327V24.293C181.327 23.5898 181.198 22.9629 180.94 22.4121C180.694 21.8496 180.319 21.4043 179.815 21.0762C179.311 20.748 178.666 20.584 177.881 20.584C177.213 20.584 176.639 20.7305 176.159 21.0234C175.678 21.3164 175.286 21.7266 174.981 22.2539C174.688 22.7812 174.465 23.4023 174.313 24.1172C174.172 24.8203 174.102 25.5938 174.102 26.4375V27.1406C174.102 27.9023 174.208 28.6055 174.418 29.25C174.641 29.8945 174.952 30.4512 175.35 30.9199C175.76 31.3887 176.252 31.752 176.827 32.0098C177.413 32.2676 178.075 32.3965 178.813 32.3965C179.727 32.3965 180.577 32.2207 181.362 31.8691C182.159 31.5059 182.844 30.9609 183.418 30.2344L185.879 32.9062C185.481 33.4805 184.936 34.0312 184.245 34.5586C183.565 35.0859 182.745 35.5195 181.784 35.8594C180.823 36.1875 179.727 36.3516 178.497 36.3516ZM200.907 30.7441C200.907 30.3809 200.802 30.0527 200.591 29.7598C200.38 29.4668 199.987 29.1973 199.413 28.9512C198.851 28.6934 198.036 28.459 196.97 28.248C196.009 28.0371 195.112 27.7734 194.28 27.457C193.46 27.1289 192.745 26.7363 192.136 26.2793C191.538 25.8223 191.069 25.2832 190.73 24.6621C190.39 24.0293 190.22 23.3086 190.22 22.5C190.22 21.7031 190.39 20.9531 190.73 20.25C191.081 19.5469 191.579 18.9258 192.224 18.3867C192.88 17.8359 193.677 17.4082 194.614 17.1035C195.564 16.7871 196.63 16.6289 197.814 16.6289C199.466 16.6289 200.884 16.8926 202.067 17.4199C203.263 17.9473 204.177 18.6738 204.81 19.5996C205.454 20.5137 205.776 21.5566 205.776 22.7285H200.714C200.714 22.2363 200.608 21.7969 200.398 21.4102C200.198 21.0117 199.882 20.7012 199.448 20.4785C199.026 20.2441 198.476 20.127 197.796 20.127C197.233 20.127 196.747 20.2266 196.337 20.4258C195.927 20.6133 195.61 20.8711 195.388 21.1992C195.177 21.5156 195.071 21.8672 195.071 22.2539C195.071 22.5469 195.13 22.8105 195.247 23.0449C195.376 23.2676 195.581 23.4727 195.862 23.6602C196.144 23.8477 196.507 24.0234 196.952 24.1875C197.409 24.3398 197.972 24.4805 198.64 24.6094C200.011 24.8906 201.235 25.2598 202.314 25.7168C203.392 26.1621 204.247 26.7715 204.88 27.5449C205.513 28.3066 205.829 29.3086 205.829 30.5508C205.829 31.3945 205.642 32.168 205.267 32.8711C204.892 33.5742 204.353 34.1895 203.649 34.7168C202.946 35.2324 202.103 35.6367 201.118 35.9297C200.146 36.2109 199.05 36.3516 197.831 36.3516C196.062 36.3516 194.562 36.0352 193.331 35.4023C192.112 34.7695 191.187 33.9668 190.554 32.9941C189.933 32.0098 189.622 31.002 189.622 29.9707H194.421C194.444 30.6621 194.62 31.2188 194.948 31.6406C195.288 32.0625 195.716 32.3672 196.231 32.5547C196.759 32.7422 197.327 32.8359 197.937 32.8359C198.593 32.8359 199.138 32.748 199.571 32.5723C200.005 32.3848 200.333 32.1387 200.556 31.834C200.79 31.5176 200.907 31.1543 200.907 30.7441Z" fill="#393E46"/>
</svg>
