<svg width="161" height="34" viewBox="0 0 161 34" fill="none" xmlns="http://www.w3.org/2000/svg">
<path d="M9.00801 26.504C6.75201 26.504 4.88001 26 3.39201 24.992C1.90401 23.984 0.992006 22.46 0.656006 20.42L4.11201 19.592C4.30401 20.576 4.62801 21.356 5.08401 21.932C5.54001 22.508 6.10401 22.916 6.77601 23.156C7.47201 23.396 8.21601 23.516 9.00801 23.516C10.184 23.516 11.084 23.288 11.708 22.832C12.356 22.376 12.68 21.788 12.68 21.068C12.68 20.348 12.38 19.82 11.78 19.484C11.18 19.148 10.292 18.872 9.11601 18.656L7.89201 18.44C6.69201 18.224 5.60001 17.912 4.61601 17.504C3.63201 17.096 2.85201 16.532 2.27601 15.812C1.70001 15.092 1.41201 14.168 1.41201 13.04C1.41201 11.36 2.03601 10.064 3.28401 9.15199C4.53201 8.21599 6.18801 7.74799 8.25201 7.74799C10.244 7.74799 11.876 8.20399 13.148 9.11599C14.444 10.004 15.284 11.216 15.668 12.752L12.212 13.724C11.996 12.644 11.54 11.888 10.844 11.456C10.148 11 9.28401 10.772 8.25201 10.772C7.24401 10.772 6.45201 10.964 5.87601 11.348C5.30001 11.708 5.01201 12.224 5.01201 12.896C5.01201 13.616 5.28801 14.144 5.84001 14.48C6.41601 14.816 7.18401 15.068 8.14401 15.236L9.40401 15.452C10.676 15.668 11.84 15.968 12.896 16.352C13.952 16.736 14.78 17.288 15.38 18.008C16.004 18.728 16.316 19.688 16.316 20.888C16.316 22.664 15.656 24.044 14.336 25.028C13.016 26.012 11.24 26.504 9.00801 26.504Z" fill="white"/>
<path d="M20.6501 26V8.25199H24.3581V26H20.6501ZM22.5221 5.83999C21.8021 5.83999 21.1901 5.61199 20.6861 5.15599C20.2061 4.67599 19.9661 4.06399 19.9661 3.31999C19.9661 2.57599 20.2061 1.97599 20.6861 1.51999C21.1901 1.03999 21.8021 0.799988 22.5221 0.799988C23.2661 0.799988 23.8781 1.03999 24.3581 1.51999C24.8381 1.97599 25.0781 2.57599 25.0781 3.31999C25.0781 4.06399 24.8381 4.67599 24.3581 5.15599C23.8781 5.61199 23.2661 5.83999 22.5221 5.83999Z" fill="white"/>
<path d="M36.521 26C35.441 26 34.577 25.676 33.929 25.028C33.305 24.38 32.993 23.516 32.993 22.436V11.384H28.097V8.25199H32.993V2.38399H36.701V8.25199H41.993V11.384H36.701V21.788C36.701 22.508 37.037 22.868 37.709 22.868H41.417V26H36.521Z" fill="white"/>
<path d="M53.8525 26.504C52.0525 26.504 50.4805 26.132 49.1365 25.388C47.7925 24.62 46.7365 23.552 45.9685 22.184C45.2245 20.792 44.8525 19.184 44.8525 17.36V16.928C44.8525 15.08 45.2245 13.472 45.9685 12.104C46.7125 10.712 47.7445 9.64399 49.0645 8.89999C50.4085 8.13199 51.9565 7.74799 53.7085 7.74799C55.4125 7.74799 56.9005 8.13199 58.1725 8.89999C59.4685 9.64399 60.4765 10.688 61.1965 12.032C61.9165 13.376 62.2765 14.948 62.2765 16.748V18.152H48.6325C48.6805 19.712 49.1965 20.96 50.1805 21.896C51.1885 22.808 52.4365 23.264 53.9245 23.264C55.3165 23.264 56.3605 22.952 57.0565 22.328C57.7765 21.704 58.3285 20.984 58.7125 20.168L61.7725 21.752C61.4365 22.424 60.9445 23.132 60.2965 23.876C59.6725 24.62 58.8445 25.244 57.8125 25.748C56.7805 26.252 55.4605 26.504 53.8525 26.504ZM48.6685 15.308H58.4965C58.4005 13.964 57.9205 12.92 57.0565 12.176C56.1925 11.408 55.0645 11.024 53.6725 11.024C52.2805 11.024 51.1405 11.408 50.2525 12.176C49.3885 12.92 48.8605 13.964 48.6685 15.308Z" fill="white"/>
<path d="M66.7399 33.2V8.25199H70.3759V10.808H70.9519C71.4079 10.016 72.0919 9.30799 73.0039 8.68399C73.9399 8.05999 75.2719 7.74799 76.9999 7.74799C78.4879 7.74799 79.8439 8.10799 81.0679 8.82799C82.3159 9.54799 83.3119 10.592 84.0559 11.96C84.8239 13.304 85.2079 14.936 85.2079 16.856V17.396C85.2079 19.316 84.8359 20.96 84.0919 22.328C83.3479 23.672 82.3519 24.704 81.1039 25.424C79.8559 26.144 78.4879 26.504 76.9999 26.504C75.8479 26.504 74.8759 26.36 74.0839 26.072C73.2919 25.784 72.6559 25.424 72.1759 24.992C71.6959 24.536 71.3119 24.068 71.0239 23.588H70.4479V33.2H66.7399ZM75.9199 23.264C77.5519 23.264 78.8839 22.748 79.9159 21.716C80.9479 20.684 81.4639 19.208 81.4639 17.288V16.964C81.4639 15.068 80.9359 13.604 79.8799 12.572C78.8479 11.54 77.5279 11.024 75.9199 11.024C74.3359 11.024 73.0159 11.54 71.9599 12.572C70.9279 13.604 70.4119 15.068 70.4119 16.964V17.288C70.4119 19.208 70.9279 20.684 71.9599 21.716C73.0159 22.748 74.3359 23.264 75.9199 23.264Z" fill="#AB68FF"/>
<path d="M89.8024 26V8.25199H93.4384V10.34H94.0144C94.3024 9.59599 94.7584 9.05599 95.3824 8.71999C96.0304 8.35999 96.8224 8.17999 97.7584 8.17999H99.8824V11.528H97.6144C96.4144 11.528 95.4304 11.864 94.6624 12.536C93.8944 13.184 93.5104 14.192 93.5104 15.56V26H89.8024Z" fill="#AB68FF"/>
<path d="M111.407 26.504C109.631 26.504 108.047 26.144 106.655 25.424C105.287 24.68 104.207 23.624 103.415 22.256C102.623 20.888 102.227 19.268 102.227 17.396V16.856C102.227 14.984 102.623 13.376 103.415 12.032C104.207 10.664 105.287 9.60799 106.655 8.86399C108.047 8.11999 109.631 7.74799 111.407 7.74799C113.183 7.74799 114.767 8.11999 116.159 8.86399C117.551 9.60799 118.643 10.664 119.435 12.032C120.227 13.376 120.623 14.984 120.623 16.856V17.396C120.623 19.268 120.227 20.888 119.435 22.256C118.643 23.624 117.551 24.68 116.159 25.424C114.767 26.144 113.183 26.504 111.407 26.504ZM111.407 23.192C113.039 23.192 114.359 22.676 115.367 21.644C116.399 20.588 116.915 19.136 116.915 17.288V16.964C116.915 15.116 116.411 13.676 115.403 12.644C114.395 11.588 113.063 11.06 111.407 11.06C109.799 11.06 108.479 11.588 107.447 12.644C106.439 13.676 105.935 15.116 105.935 16.964V17.288C105.935 19.136 106.439 20.588 107.447 21.644C108.479 22.676 109.799 23.192 111.407 23.192Z" fill="#AB68FF"/>
<path d="M127.226 26.504C126.386 26.504 125.678 26.228 125.102 25.676C124.55 25.124 124.274 24.416 124.274 23.552C124.274 22.688 124.55 21.992 125.102 21.464C125.678 20.912 126.386 20.636 127.226 20.636C128.066 20.636 128.762 20.912 129.314 21.464C129.89 22.016 130.178 22.712 130.178 23.552C130.178 24.416 129.89 25.124 129.314 25.676C128.762 26.228 128.066 26.504 127.226 26.504Z" fill="white"/>
<path d="M140.451 26.504C139.179 26.504 138.039 26.288 137.031 25.856C136.047 25.424 135.255 24.788 134.655 23.948C134.079 23.108 133.791 22.088 133.791 20.888C133.791 19.664 134.079 18.656 134.655 17.864C135.255 17.048 136.059 16.436 137.067 16.028C138.099 15.62 139.263 15.416 140.559 15.416H145.959V14.264C145.959 13.232 145.647 12.404 145.023 11.78C144.399 11.156 143.439 10.844 142.143 10.844C140.871 10.844 139.899 11.144 139.227 11.744C138.555 12.344 138.111 13.124 137.895 14.084L134.439 12.968C134.727 12.008 135.183 11.144 135.807 10.376C136.455 9.58399 137.307 8.94799 138.363 8.46799C139.419 7.98799 140.691 7.74799 142.179 7.74799C144.483 7.74799 146.295 8.33599 147.615 9.51199C148.935 10.688 149.595 12.356 149.595 14.516V21.824C149.595 22.544 149.931 22.904 150.603 22.904H152.115V26H149.343C148.503 26 147.819 25.784 147.291 25.352C146.763 24.92 146.499 24.332 146.499 23.588V23.48H145.959C145.767 23.84 145.479 24.26 145.095 24.74C144.711 25.22 144.147 25.64 143.403 26C142.659 26.336 141.675 26.504 140.451 26.504ZM140.991 23.444C142.479 23.444 143.679 23.024 144.591 22.184C145.503 21.32 145.959 20.144 145.959 18.656V18.296H140.775C139.791 18.296 138.999 18.512 138.399 18.944C137.799 19.352 137.499 19.964 137.499 20.78C137.499 21.596 137.811 22.244 138.435 22.724C139.059 23.204 139.911 23.444 140.991 23.444Z" fill="white"/>
<path d="M155.72 26V8.25199H159.428V26H155.72ZM157.592 5.83999C156.872 5.83999 156.26 5.61199 155.756 5.15599C155.276 4.67599 155.036 4.06399 155.036 3.31999C155.036 2.57599 155.276 1.97599 155.756 1.51999C156.26 1.03999 156.872 0.799988 157.592 0.799988C158.336 0.799988 158.948 1.03999 159.428 1.51999C159.908 1.97599 160.148 2.57599 160.148 3.31999C160.148 4.06399 159.908 4.67599 159.428 5.15599C158.948 5.61199 158.336 5.83999 157.592 5.83999Z" fill="white"/>
</svg>
